<?xml version="1.0" encoding="UTF-8"?>
<svg id="Layer_1" data-name="Layer 1" xmlns="http://www.w3.org/2000/svg" viewBox="0 0 354.61 280.95">
  <defs>
    <style>
      .cls-1 {
        fill: #fff;
      }
    </style>
  </defs>
  <path class="cls-1" d="M82.51,150.72c.28.08.57-.13.57-.42v-8.94c0-.17-.1-.32-.25-.39-9.14-4.51-17.13-9.96-24.12-17.26-14.31-14.81-19.31-31.41-15.02-49.78,2.73-11.68,6.08-21.84,17.04-25.04,1.38-.4,3.1-.67,4.86-.62,5.88.17,9.64,1.49,12.51,2.61,3.11,1.21,5.22,3.53,6.33,6.96,1.1,3.44,1.66,8.98,1.66,16.65v66.85s0,.07-.01.1v10.88s.01.01.01.02l.08,35.28c0,.36.24.66.59.74,9.68,2.22,20.02,4.93,31.43,8.24,5.19,1.51,10.13,3.01,14.89,4.52.09.03.17.02.26.02.08.08.19.15.31.19.95.31,1.9.61,2.84.92.32.1.66-.01.86-.28,0,0,13.89-18.62,30.09-42.59.97-.8,1.65-1.1,1.75-1.19.35-.16.68-.32,1.02-.48,13.45-3.63,30.53-10.85,49.84-24.92.26-.14.41-.41.39-.7-.07-1.09-.17-2.29-.27-3.54-.05-.59-.71-.9-1.2-.57-2.3,1.56-4.56,3.06-6.79,4.49-6.33,4.02-22.06,13.49-38.75,19.56-.26-.35-.33-.83-.06-1.28,1.17-1.84,2.29-3.64,3.39-5.4,10.79-16.53,21.64-34.24,29.38-49.54,1.47-2.38,2.93-4.72,4.38-6.99h0c9.12-14.83,20.34-29.37,21.16-30.29h.01c5.52-7.08,10.89-13.3,16.09-18.6,15.67-15.97,29.66-23.95,41.97-23.95,5.37,0,9.96,1.13,13.77,3.37,4.03,2.25,6.04,5.85,6.04,10.8,0,15.48-14.57,35.96-43.69,61.43-.26.23-.34.6-.18.91.98,1.94,2.27,4.65,3.39,7.44.19.48.79.64,1.2.32,28.64-22.58,42.98-44.37,42.98-65.37,0-8.32-2.35-15.18-7.05-20.58-4.7-5.4-10.97-8.1-18.8-8.1-25.11,0-48.7,15.32-70.77,45.94,0,0,0,0,0,0-2.73,3.83-6.64,9.59-11.26,17.22-6.57,10.96-13.01,23.33-19.3,37.13h-.01s-11.88,24.02-25.96,49.51c-3.73.82-7.4,1.34-10.9,1.48-1.4-.02-3.03-.12-5.15-.38-2.18-.26-4.64-.59-6.94-.96-.24-.04-.45.15-.45.39v3.49c0,.19.15.36.34.39.64.1,1.27.19,1.9.28h0s.58.11,1.69.23c2.17.28,4.2.49,5.78.56,4.49.21,6.73.2,9.69-.16.41-.05.78-.09,1.14-.12-7.61,13.58-15.65,27.14-22.69,37.32h0c-.15.2-.3.4-.45.59l-.08-38.33s.02-.07.02-.11v-5.67s-.02-.07-.02-.1v-81.01c0-7.27.6-12.72,1.81-16.34,1.21-3.63,3.36-6.16,6.48-7.57,3.11-1.41,7.78-2.12,14.01-2.12,19.97,0,35.27,5.7,45.91,17.05.35.37.94.32,1.2-.12,2.8-4.61,6.15-9.44,8.87-13.23.3-.42.12-1-.37-1.17-15.51-5.32-33.94-7.99-55.31-7.99-7.03,0-18.78.21-35.24.6l-12.05.3h-9.34c-13.55-.09-24.82.08-33.42.04-7.38-.04-12.65,2.06-17.44,5.31-9.87,6.71-15.94,19.91-19.04,33.17-7.79,33.36,9.72,56.31,52.47,68.9Z"/>
  <path class="cls-1" d="M207.07,227.5c-.28.41-.12.97.34,1.15,2.17.85,4.33,1.71,6.51,2.56,4.58,1.79,9.15,3.56,13.72,5.33.23.09.49.06.7-.07,13.38-8.51,23.33-18.28,31.11-31.69,9.54-16.45,14.31-35.67,14.31-57.66,0-16.67-2.34-31.4-6.99-44.19.02-.02.04-.03.07-.05-1.18-3.36-2.44-6.11-3.82-8.85,0,0-.01,0-.02.01-4.65-9.54-10.8-17.83-18.46-24.86-2.87-2.63-5.96-5.07-9.26-7.31-.34-.23-.8-.16-1.05.17-2.7,3.57-10.36,13.97-18.11,26.84-.12.19-.14.42-.07.64,2.85,8.45,4.92,18.27,6.18,29.47h.02c.35,2.71,1.19,12.15,1.28,17.91.14,3.7.22,7.5.22,11.43,0,34.51-5.12,60.29-15.36,77.34-.62,1.04-.64.87-1.32,1.84Z"/>
  <path class="cls-1" d="M346.65,230.85c-.78-2.69-2.06-5.5-3.84-8.4-.01-.02-.02-.04-.03-.06-1.56-3.14-3.18-5.66-4.85-7.56-.02-.02-.03-.04-.05-.06-.89-1.01-2.46.16-1.79,1.33,5.37,9.37,8.05,17.55,8.05,24.54,0,12.82-10.97,19.23-32.91,19.23-10.97,0-23.79-1.63-38.44-4.89-13.26-2.95-27.96-7.44-44.06-13.43h0c-5.68-2.1-11.01-4.21-16.53-6.37-4.42-1.73-8.9-3.51-13.29-5.25-6.09-2.39-12.19-4.78-18.28-7.17-8.88-3.49-17.82-6.97-26.78-10.46v.03c-11.03-4.07-22.15-9.22-35.73-13.16,0,0,0,0-.01,0-11.21-3.89-29.24-8.97-48.85-9.9-2.9-.19-5.62-.28-8.01-.28-5.43,0-10.53.49-15.33,1.41-.06,0-.12.02-.18.03-23.53,3.71-32.48,14.83-35.82,23.85-.05.13-.09.27-.14.4-.18.52-.35,1.02-.49,1.52-.03.12-.07.23-.1.35-1.68,5.94-1.04,10.49-1.04,10.49h0c.64,7.99,5.31,15.11,14.02,21.36,8.95,6.29,18.02,9.45,27.2,9.45,4.9,0,9.7-.4,14.4-1.16.02,0,.05,0,.07,0,10.24-.59,25.59-.89,46.07-.89,5.22,0,13.65.21,25.3.6l18.68.3c17.12,0,31.81-1.01,45.65-5.31.65-.2.73-1.1.12-1.42l-9.78-5.15c-.23-.12-.49-.12-.72,0-9.05,5.03-19.38,6.41-32.56,6.41-6.43,0-11.2-.7-14.31-2.12-3.12-1.41-5.27-3.94-6.48-7.57-1.21-3.63-1.81-9.08-1.81-16.35v-9.83c0-.3-.18-.57-.45-.7-11.09-5.2-17.77-7.38-27.28-10.32-7.44-2.3-13.36-3.84-19.24-5.15-.48-.11-.93.26-.93.75v24.65c0,7.33-.51,12.71-1.51,16.16-.06.22-.23.4-.44.49-4.31,1.87-8.41,3.41-12.3,4.61-6.94,2.13-13.32,3.21-19.14,3.21-9.63,0-17.91-2.48-24.85-7.42-7.09-4.75-12-10.36-13.02-16.72,0-.02,0-.03,0-.05-.03-.21-.05-.43-.07-.64-.27-3.03.05-10.57,7.96-18.75,3.24-3.35,37.1-27.35,111.75,5.78l-.02-.03c.34.16.67.31,1.02.48,4.42,2,10.24,4.41,17.13,8.01,8.17,4.27,18.18,9.67,30.05,16.19,1.08.59,2.12,1.16,3.18,1.74l28.43,14.98c9.15,4.6,16.86,8.25,23.12,10.94,10.29,4.27,19.7,7.48,28.2,9.62,8.5,2.13,16.23,3.21,23.17,3.21,13.2,0,25.74-3.15,37.61-9.45,14.32-7.65,21.49-17.32,21.49-29.01,0-2.02-.39-4.39-1.17-7.08Z"/>
</svg>